<svg width="60" height="60" viewBox="0 0 200 200" fill="none" xmlns="http://www.w3.org/2000/svg">
<g id="Group 1">
<rect id="Rectangle 20" width="200" height="200" rx="100" fill="#fff"/>
<g id="JT" style="mix-blend-mode:darken">
<path d="M69.9062 132.688C68.4062 131.688 67.5729 130.167 67.4062 128.125C67.2396 126.083 67.4896 123.812 68.1562 121.312C68.8646 118.812 69.8438 116.208 71.0938 113.5C72.3854 110.75 73.7188 108.188 75.0938 105.812C76.5104 103.438 77.8438 101.354 79.0938 99.5625C80.3438 97.7292 81.2812 96.4792 81.9062 95.8125C81.9479 95.6458 81.9688 95.2917 81.9688 94.75C81.9688 94.1667 81.9479 93.7917 81.9062 93.625C81.8229 93.125 81.6771 92.2708 81.4688 91.0625C81.3021 89.8125 81.0938 88.5 80.8438 87.125C80.6354 85.7083 80.4062 84.3958 80.1562 83.1875C79.9479 81.9375 79.8021 81.0625 79.7188 80.5625C79.5104 80.1875 79.1979 79.875 78.7812 79.625C78.4062 79.375 77.9896 79.3542 77.5312 79.5625L60.2188 86C59.7188 86.2083 59.2812 86.1875 58.9062 85.9375C58.5312 85.6875 58.2604 85.3542 58.0938 84.9375C57.9271 84.5208 57.9062 84.1042 58.0312 83.6875C58.1979 83.2708 58.5521 82.9583 59.0938 82.75L94.9062 70.8125H98.1562C98.4479 71.6875 98.5312 72.3333 98.4062 72.75C98.2812 73.125 98.0312 73.3958 97.6562 73.5625C97.3229 73.7292 96.9062 73.8333 96.4062 73.875C95.9062 73.9167 95.4062 74 94.9062 74.125C94.4896 74.25 93.7604 74.4583 92.7188 74.75C91.7188 75.0417 90.6354 75.375 89.4688 75.75C88.3021 76.0833 87.1979 76.4167 86.1562 76.75C85.1562 77.0417 84.4688 77.25 84.0938 77.375C83.8438 79.75 83.9062 82.1458 84.2812 84.5625C84.6562 86.9375 85.3229 89.2292 86.2812 91.4375L97.0938 86C97.6771 85.7083 98.2396 85.6667 98.7812 85.875C99.3646 86.0833 99.7812 86.3958 100.031 86.8125C100.323 87.2292 100.427 87.6875 100.344 88.1875C100.26 88.6458 99.8854 89 99.2188 89.25C98.2604 89.625 97.1146 90.0208 95.7812 90.4375C94.4896 90.8125 93.1979 91.2708 91.9062 91.8125C90.6146 92.3542 89.4479 93.0208 88.4062 93.8125C87.3646 94.6042 86.6562 95.625 86.2812 96.875C86.1146 97.2917 85.9688 98.2708 85.8438 99.8125C85.7188 101.312 85.5521 103.146 85.3438 105.312C85.1771 107.479 84.9271 109.833 84.5938 112.375C84.3021 114.917 83.9062 117.417 83.4062 119.875C82.9062 122.292 82.2812 124.562 81.5312 126.688C80.7812 128.812 79.8646 130.521 78.7812 131.812C77.6979 133.146 76.4271 133.938 74.9688 134.188C73.5104 134.438 71.8229 133.938 69.9062 132.688ZM72.0938 129.375C72.6771 130.542 73.3229 130.938 74.0312 130.562C74.7396 130.229 75.4479 129.438 76.1562 128.188C76.9062 126.979 77.6146 125.458 78.2812 123.625C78.9479 121.833 79.5312 120.062 80.0312 118.312C80.5729 116.562 81.0104 115 81.3438 113.625C81.6771 112.25 81.8646 111.354 81.9062 110.938C81.9479 110.562 81.9688 109.875 81.9688 108.875V102.312C81.9688 101.271 81.9479 100.542 81.9062 100.125C80.1562 101.958 78.5938 104.062 77.2188 106.438C75.8854 108.771 74.7812 111.229 73.9062 113.812C73.0312 116.354 72.4271 118.958 72.0938 121.625C71.7604 124.292 71.7604 126.875 72.0938 129.375ZM120.344 120.812C120.427 117.938 120.385 115.062 120.219 112.188C120.094 109.271 119.927 106.375 119.719 103.5C119.552 100.583 119.385 97.6875 119.219 94.8125C119.094 91.8958 119.094 89 119.219 86.125C118.76 86.25 118.052 86.4375 117.094 86.6875C116.135 86.8958 115.052 87.1458 113.844 87.4375C112.635 87.7292 111.344 88.0417 109.969 88.375C108.635 88.6667 107.365 88.9583 106.156 89.25C104.948 89.5417 103.865 89.8125 102.906 90.0625C101.948 90.2708 101.24 90.4167 100.781 90.5C100.198 90.625 99.6146 90.5625 99.0312 90.3125C98.4896 90.0208 97.9896 89.7083 97.5312 89.375L99.7188 87.25C106.302 86.625 112.781 85.3542 119.156 83.4375C125.531 81.4792 131.698 79.125 137.656 76.375H140.906C141.115 76.7083 141.115 77.0625 140.906 77.4375C140.74 77.8125 140.49 78.1667 140.156 78.5C139.823 78.7917 139.49 79.0625 139.156 79.3125L138.719 79.625L123.594 85.0625C123.552 85.0625 123.51 85.5625 123.469 86.5625C123.469 87.5625 123.469 88.75 123.469 90.125C123.469 91.5 123.469 92.9375 123.469 94.4375C123.51 95.8958 123.552 97.1042 123.594 98.0625C123.594 98.3958 123.615 99.125 123.656 100.25C123.74 101.375 123.802 102.688 123.844 104.188C123.927 105.646 124.01 107.208 124.094 108.875C124.177 110.542 124.26 112.125 124.344 113.625C124.427 115.125 124.49 116.438 124.531 117.562C124.573 118.646 124.615 119.375 124.656 119.75C124.656 120.458 124.448 121.104 124.031 121.688C123.656 122.271 123.219 122.667 122.719 122.875C122.219 123.083 121.719 123.062 121.219 122.812C120.76 122.521 120.469 121.854 120.344 120.812Z" fill="#33323d"/>
</g>
</g>
</svg>
