<svg width="40" height="40" viewBox="0 0 200 200" fill="none" xmlns="http://www.w3.org/2000/svg">
<rect width="200" height="200" rx="100" fill="#F5F5F5"/>
<g style="mix-blend-mode:darken">
<path d="M66.6445 136.898C64.957 135.773 64.0195 134.062 63.832 131.766C63.6445 129.469 63.9258 126.914 64.6758 124.102C65.4727 121.289 66.5742 118.359 67.9805 115.312C69.4336 112.219 70.9336 109.336 72.4805 106.664C74.0742 103.992 75.5742 101.648 76.9805 99.6328C78.3867 97.5703 79.4414 96.1641 80.1445 95.4141C80.1914 95.2266 80.2148 94.8281 80.2148 94.2188C80.2148 93.5625 80.1914 93.1406 80.1445 92.9531C80.0508 92.3906 79.8867 91.4297 79.6523 90.0703C79.4648 88.6641 79.2305 87.1875 78.9492 85.6406C78.7148 84.0469 78.457 82.5703 78.1758 81.2109C77.9414 79.8047 77.7773 78.8203 77.6836 78.2578C77.4492 77.8359 77.0977 77.4844 76.6289 77.2031C76.207 76.9219 75.7383 76.8984 75.2227 77.1328L55.7461 84.375C55.1836 84.6094 54.6914 84.5859 54.2695 84.3047C53.8477 84.0234 53.543 83.6484 53.3555 83.1797C53.168 82.7109 53.1445 82.2422 53.2852 81.7734C53.4727 81.3047 53.8711 80.9531 54.4805 80.7188L94.7695 67.2891H98.4258C98.7539 68.2734 98.8477 69 98.707 69.4688C98.5664 69.8906 98.2852 70.1953 97.8633 70.3828C97.4883 70.5703 97.0195 70.6875 96.457 70.7344C95.8945 70.7812 95.332 70.875 94.7695 71.0156C94.3008 71.1562 93.4805 71.3906 92.3086 71.7188C91.1836 72.0469 89.9648 72.4219 88.6523 72.8438C87.3398 73.2188 86.0977 73.5938 84.9258 73.9688C83.8008 74.2969 83.0273 74.5312 82.6055 74.6719C82.3242 77.3438 82.3945 80.0391 82.8164 82.7578C83.2383 85.4297 83.9883 88.0078 85.0664 90.4922L97.2305 84.375C97.8867 84.0469 98.5195 84 99.1289 84.2344C99.7852 84.4688 100.254 84.8203 100.535 85.2891C100.863 85.7578 100.98 86.2734 100.887 86.8359C100.793 87.3516 100.371 87.75 99.6211 88.0312C98.543 88.4531 97.2539 88.8984 95.7539 89.3672C94.3008 89.7891 92.8477 90.3047 91.3945 90.9141C89.9414 91.5234 88.6289 92.2734 87.457 93.1641C86.2852 94.0547 85.4883 95.2031 85.0664 96.6094C84.8789 97.0781 84.7148 98.1797 84.5742 99.9141C84.4336 101.602 84.2461 103.664 84.0117 106.102C83.8242 108.539 83.543 111.188 83.168 114.047C82.8398 116.906 82.3945 119.719 81.832 122.484C81.2695 125.203 80.5664 127.758 79.7227 130.148C78.8789 132.539 77.8477 134.461 76.6289 135.914C75.4102 137.414 73.9805 138.305 72.3398 138.586C70.6992 138.867 68.8008 138.305 66.6445 136.898ZM69.1055 133.172C69.7617 134.484 70.4883 134.93 71.2852 134.508C72.082 134.133 72.8789 133.242 73.6758 131.836C74.5195 130.477 75.3164 128.766 76.0664 126.703C76.8164 124.688 77.4727 122.695 78.0352 120.727C78.6445 118.758 79.1367 117 79.5117 115.453C79.8867 113.906 80.0977 112.898 80.1445 112.43C80.1914 112.008 80.2148 111.234 80.2148 110.109V102.727C80.2148 101.555 80.1914 100.734 80.1445 100.266C78.1758 102.328 76.418 104.695 74.8711 107.367C73.3711 109.992 72.1289 112.758 71.1445 115.664C70.1602 118.523 69.4805 121.453 69.1055 124.453C68.7305 127.453 68.7305 130.359 69.1055 133.172ZM123.387 123.539C123.48 120.305 123.434 117.07 123.246 113.836C123.105 110.555 122.918 107.297 122.684 104.062C122.496 100.781 122.309 97.5234 122.121 94.2891C121.98 91.0078 121.98 87.75 122.121 84.5156C121.605 84.6562 120.809 84.8672 119.73 85.1484C118.652 85.3828 117.434 85.6641 116.074 85.9922C114.715 86.3203 113.262 86.6719 111.715 87.0469C110.215 87.375 108.785 87.7031 107.426 88.0312C106.066 88.3594 104.848 88.6641 103.77 88.9453C102.691 89.1797 101.895 89.3438 101.379 89.4375C100.723 89.5781 100.066 89.5078 99.4102 89.2266C98.8008 88.8984 98.2383 88.5469 97.7227 88.1719L100.184 85.7812C107.59 85.0781 114.879 83.6484 122.051 81.4922C129.223 79.2891 136.16 76.6406 142.863 73.5469H146.52C146.754 73.9219 146.754 74.3203 146.52 74.7422C146.332 75.1641 146.051 75.5625 145.676 75.9375C145.301 76.2656 144.926 76.5703 144.551 76.8516L144.059 77.2031L127.043 83.3203C126.996 83.3203 126.949 83.8828 126.902 85.0078C126.902 86.1328 126.902 87.4688 126.902 89.0156C126.902 90.5625 126.902 92.1797 126.902 93.8672C126.949 95.5078 126.996 96.8672 127.043 97.9453C127.043 98.3203 127.066 99.1406 127.113 100.406C127.207 101.672 127.277 103.148 127.324 104.836C127.418 106.477 127.512 108.234 127.605 110.109C127.699 111.984 127.793 113.766 127.887 115.453C127.98 117.141 128.051 118.617 128.098 119.883C128.145 121.102 128.191 121.922 128.238 122.344C128.238 123.141 128.004 123.867 127.535 124.523C127.113 125.18 126.621 125.625 126.059 125.859C125.496 126.094 124.934 126.07 124.371 125.789C123.855 125.461 123.527 124.711 123.387 123.539Z" fill="#1F6A5A"/>
</g>
</svg>
